<mxfile host="app.diagrams.net" agent="Mozilla/5.0 (Macintosh; Intel Mac OS X 10_15_7) AppleWebKit/537.36 (KHTML, like Gecko) Chrome/133.0.0.0 Safari/537.36" version="26.0.15">
  <diagram name="Page-1" id="ZFvxp3vDeoDbae18x3tY">
    <mxGraphModel dx="1434" dy="819" grid="1" gridSize="10" guides="1" tooltips="1" connect="1" arrows="1" fold="1" page="1" pageScale="1" pageWidth="850" pageHeight="1100" math="0" shadow="0">
      <root>
        <mxCell id="0" />
        <mxCell id="1" parent="0" />
        <mxCell id="GT5GvSBU-0Xp4_7-krDM-2" value="" style="ellipse;whiteSpace=wrap;html=1;fillColor=#dae8fc;strokeColor=#6c8ebf;" vertex="1" parent="1">
          <mxGeometry x="85" y="10" width="715" height="650" as="geometry" />
        </mxCell>
        <mxCell id="GT5GvSBU-0Xp4_7-krDM-3" value="&lt;font style=&quot;font-size: 17px;&quot;&gt;Standard AT&lt;/font&gt;&lt;div&gt;&lt;font style=&quot;font-size: 17px;&quot;&gt;Lp ball&lt;/font&gt;&lt;/div&gt;" style="ellipse;whiteSpace=wrap;html=1;aspect=fixed;fillColor=#008a00;fontColor=#ffffff;strokeColor=#005700;" vertex="1" parent="1">
          <mxGeometry x="160" y="280" width="160" height="160" as="geometry" />
        </mxCell>
        <mxCell id="GT5GvSBU-0Xp4_7-krDM-4" value="&lt;font face=&quot;Tahoma&quot; style=&quot;font-size: 25px;&quot;&gt;&lt;b style=&quot;&quot;&gt;OOD&amp;nbsp;&lt;/b&gt;&lt;/font&gt;&lt;div&gt;&lt;font face=&quot;Tahoma&quot; style=&quot;font-size: 25px;&quot;&gt;&lt;b style=&quot;&quot;&gt;+&amp;nbsp;&lt;/b&gt;&lt;/font&gt;&lt;div&gt;&lt;font face=&quot;Tahoma&quot; style=&quot;font-size: 25px;&quot;&gt;&lt;b style=&quot;&quot;&gt;Unknown Adversaries&lt;/b&gt;&lt;/font&gt;&lt;/div&gt;&lt;/div&gt;" style="text;html=1;align=center;verticalAlign=middle;resizable=0;points=[];autosize=1;strokeColor=none;fillColor=none;" vertex="1" parent="1">
          <mxGeometry x="115" y="165" width="300" height="100" as="geometry" />
        </mxCell>
        <mxCell id="GT5GvSBU-0Xp4_7-krDM-9" value="&lt;font style=&quot;color: rgb(255, 255, 255); font-size: 16px;&quot;&gt;&lt;u&gt;Under Confidence/Poor Generalization&lt;/u&gt;&lt;/font&gt;&lt;div&gt;&lt;font style=&quot;color: rgb(255, 255, 255); font-size: 16px;&quot;&gt;&lt;br&gt;&lt;/font&gt;&lt;/div&gt;&lt;div&gt;&lt;font style=&quot;color: rgb(255, 255, 255); font-size: 16px;&quot;&gt;Domain/ environment change&lt;/font&gt;&lt;/div&gt;&lt;div&gt;&lt;font style=&quot;color: rgb(255, 255, 255); font-size: 16px;&quot;&gt;Unseen Perturbations&lt;/font&gt;&lt;/div&gt;&lt;div&gt;&lt;font style=&quot;color: rgb(255, 255, 255); font-size: 16px;&quot;&gt;Common Corruptions (Differently Scaled)&lt;/font&gt;&lt;/div&gt;" style="ellipse;whiteSpace=wrap;html=1;fillColor=#fa6800;fontColor=#000000;strokeColor=#C73500;" vertex="1" parent="1">
          <mxGeometry x="380" y="50" width="330" height="250" as="geometry" />
        </mxCell>
        <mxCell id="GT5GvSBU-0Xp4_7-krDM-10" value="&lt;span style=&quot;font-size: 17px; text-wrap-mode: nowrap;&quot;&gt;&lt;u&gt;Overconfidence&lt;/u&gt;&lt;/span&gt;&lt;div&gt;&lt;span style=&quot;font-size: 17px; text-wrap-mode: nowrap;&quot;&gt;Novel Inputs, Outliers&lt;/span&gt;&lt;/div&gt;" style="ellipse;whiteSpace=wrap;html=1;fillColor=#a20025;fontColor=#ffffff;strokeColor=#6F0000;" vertex="1" parent="1">
          <mxGeometry x="390" y="340" width="330" height="250" as="geometry" />
        </mxCell>
      </root>
    </mxGraphModel>
  </diagram>
</mxfile>
